<?xml version="1.0" encoding="UTF-8"?><svg id="a" xmlns="http://www.w3.org/2000/svg" viewBox="0 0 600 478.99"><defs><style>.b{fill:#fff;}</style></defs><polygon class="b" points="600 216.42 570.64 301.74 557.48 278.94 390.44 375.38 390.33 375.18 390.33 375.38 125.83 375.38 66.08 478.87 65.77 478.68 65.77 478.99 0 478.99 0 0 65.77 0 65.77 347.91 82.73 318.52 220.52 79.86 258.48 14.1 296.45 79.86 352.3 176.58 462.26 113.1 449.1 90.3 537.66 107.52 508.3 192.84 495.14 170.04 385.17 233.52 328.22 266.4 295.35 209.46 258.48 145.62 158.66 318.52 357.63 318.52 357.57 318.42 524.6 221.99 511.44 199.19 600 216.42"/></svg>